<svg width="114" height="36" viewBox="0 0 114 36" fill="none" xmlns="http://www.w3.org/2000/svg">
<path d="M0.6 3.5H11.265C15.165 3.5 18.03 4.385 19.86 6.155C21.72 7.925 22.65 10.37 22.65 13.49C22.65 16.4 21.66 18.815 19.68 20.735C17.73 22.655 14.835 23.615 10.995 23.615H6.675V35H0.6V3.5ZM6.675 18.215H10.995C14.505 18.215 16.26 16.535 16.26 13.175C16.26 11.795 15.78 10.745 14.82 10.025C13.89 9.275 12.615 8.9 10.995 8.9H6.675V18.215ZM46.0447 27.35L49.3297 30.95C47.9497 32.42 46.4647 33.56 44.8747 34.37C43.3147 35.15 41.3497 35.54 38.9797 35.54C35.8897 35.54 33.1747 34.475 30.8347 32.345C28.5247 30.185 27.3697 27.185 27.3697 23.345C27.3697 19.565 28.4347 16.55 30.5647 14.3C32.6947 12.02 35.4697 10.88 38.8897 10.88C42.2797 10.88 44.8897 11.975 46.7197 14.165C48.5497 16.355 49.4647 19.25 49.4647 22.85L49.3297 25.325H33.3547C33.6547 26.945 34.3147 28.205 35.3347 29.105C36.3847 30.005 37.7197 30.455 39.3397 30.455C41.9797 30.455 44.2147 29.42 46.0447 27.35ZM33.4447 20.915H43.7047C43.6447 19.325 43.1797 18.11 42.3097 17.27C41.4397 16.4 40.2247 15.965 38.6647 15.965C37.2547 15.965 36.0547 16.385 35.0647 17.225C34.1047 18.065 33.5647 19.295 33.4447 20.915ZM57.9251 0.619997C58.9151 0.619997 59.7401 0.934998 60.4001 1.565C61.0901 2.165 61.4351 3.035 61.4351 4.175C61.4351 5.315 61.0901 6.185 60.4001 6.785C59.7101 7.385 58.8851 7.685 57.9251 7.685C56.9951 7.685 56.1851 7.385 55.4951 6.785C54.8351 6.155 54.5051 5.285 54.5051 4.175C54.5051 3.035 54.8351 2.165 55.4951 1.565C56.1851 0.934998 56.9951 0.619997 57.9251 0.619997ZM55.0451 11.42H60.8501V35H55.0451V11.42ZM84.5732 27.935L87.3182 31.445C85.0982 34.175 81.9182 35.54 77.7782 35.54C74.5982 35.54 71.8982 34.415 69.6782 32.165C67.4882 29.885 66.3932 26.84 66.3932 23.03C66.3932 19.31 67.5482 16.355 69.8582 14.165C72.1682 11.975 75.0182 10.88 78.4082 10.88C82.0682 10.88 85.0232 12.02 87.2732 14.3L84.4832 18.215C82.8332 16.715 80.8382 15.965 78.4982 15.965C76.6982 15.965 75.2132 16.595 74.0432 17.855C72.9032 19.085 72.3332 20.81 72.3332 23.03C72.3332 25.34 72.9332 27.155 74.1332 28.475C75.3632 29.795 76.8332 30.455 78.5432 30.455C80.7332 30.455 82.7432 29.615 84.5732 27.935ZM97.2463 11.69C98.6563 11.18 100.126 10.925 101.656 10.925C103.186 10.925 104.656 11.18 106.066 11.69C107.476 12.17 108.751 12.89 109.891 13.85C111.061 14.81 111.991 16.1 112.681 17.72C113.371 19.34 113.716 21.17 113.716 23.21C113.716 25.25 113.371 27.08 112.681 28.7C111.991 30.32 111.061 31.61 109.891 32.57C108.751 33.53 107.476 34.265 106.066 34.775C104.656 35.255 103.186 35.495 101.656 35.495C100.126 35.495 98.6563 35.255 97.2463 34.775C95.8363 34.265 94.5463 33.53 93.3763 32.57C92.2363 31.61 91.3213 30.32 90.6313 28.7C89.9413 27.08 89.5963 25.25 89.5963 23.21C89.5963 21.17 89.9413 19.34 90.6313 17.72C91.3213 16.1 92.2363 14.81 93.3763 13.85C94.5463 12.89 95.8363 12.17 97.2463 11.69ZM106.066 17.9C105.016 16.61 103.546 15.965 101.656 15.965C99.7663 15.965 98.2963 16.61 97.2463 17.9C96.1963 19.16 95.6713 20.93 95.6713 23.21C95.6713 25.49 96.1963 27.275 97.2463 28.565C98.2963 29.825 99.7663 30.455 101.656 30.455C103.546 30.455 105.016 29.825 106.066 28.565C107.116 27.275 107.641 25.49 107.641 23.21C107.641 20.93 107.116 19.16 106.066 17.9Z" fill="black"/>
</svg>
